<svg xmlns="http://www.w3.org/2000/svg" viewBox="0 0 64 64">
  <path d="M12 9 C10 9 9 12 9.5 18 C10 26 8.5 34 9 42 C9.4 48 8.7 52 10.5 55.5 C11.5 57.3 14.8 57 16.5 55.2 C18.2 53.3 17.2 47 17.6 40 C18 33 17 24.5 18.3 16 C19 11.2 17.4 8.7 15 8.8 C13.8 8.85 12.8 8.8 12 9 Z" fill="#e6e6e5"></path>
  <path d="M47.5 8.3 C45.6 8.6 44.8 11.3 45.3 17 C46 25 44.8 33.5 45.4 41.5 C45.8 47.5 45 51.8 47 55.5 C48.1 57.4 51.4 57 53 55 C54.6 53 53.5 46.8 54 39.8 C54.5 32.8 53.2 24 54.6 15.5 C55.4 10.6 53.6 8 51.2 8.1 C49.9 8.15 48.7 8.1 47.5 8.3 Z" fill="#e6e6e5"></path>
  <path d="M17.5 28 C22 26.7 26 27.6 30 27.2 C36 26.6 41 27.8 46.2 26.3 C48 25.8 49.3 27.8 48.7 30.8 C48.2 33.3 47 34.7 45 34.3 C40 33.3 35 34.8 29.8 34.5 C25 34.2 21 35.6 18 34 C16 33 16 29 17.5 28 Z" fill="#e6e6e5"></path>
</svg>
